<svg width="128" height="128" viewBox="0 0 128 128" fill="none" xmlns="http://www.w3.org/2000/svg">
<rect width="128" height="128" rx="16" fill="#4E7178"/>
<path d="M101.165 75.9397C101.763 76.0487 102.321 76.3031 102.783 76.6779C103.243 77.0466 103.592 77.5223 103.796 78.0576C104 78.5928 104.052 79.1691 103.947 79.7291C103.284 83.3689 100.029 91.5602 84.341 91.2968C85.4321 93.5748 86.9044 95.6732 88.7017 97.5118C89.1286 97.9482 89.4323 98.4786 89.5848 99.0543C89.7373 99.6299 89.7338 100.232 89.5745 100.807C89.4225 101.368 89.1231 101.884 88.7038 102.308C88.2846 102.732 87.7589 103.05 87.1751 103.233C80.3509 105.372 70.321 103.16 64.3435 94.797C64.3055 94.7435 64.2541 94.6996 64.1937 94.6693C64.1334 94.639 64.0661 94.6231 63.9977 94.6231C63.9293 94.6231 63.862 94.639 63.8017 94.6693C63.7414 94.6996 63.6899 94.7435 63.6519 94.797C61.745 97.5727 59.1422 99.864 56.073 101.469C53.0037 103.074 49.5623 103.943 46.0522 104C44.2744 104.009 42.5066 103.75 40.8161 103.232C40.2327 103.049 39.7074 102.731 39.2885 102.308C38.8695 101.884 38.5703 101.368 38.4183 100.807C38.2593 100.233 38.256 99.63 38.4088 99.0541C38.5616 98.4781 38.8656 97.9475 39.2928 97.511C41.09 95.6722 42.5623 93.5739 43.6536 91.296C43.4177 91.2991 43.1767 91.3063 42.9467 91.3063C27.8543 91.3063 24.6992 83.3166 24.0505 79.733C23.9478 79.1701 24.0024 78.5916 24.2089 78.0546C24.4154 77.5175 24.7667 77.0402 25.2283 76.6696C25.6899 76.2991 26.246 76.0479 26.8418 75.9409C27.4376 75.8338 28.0528 75.8745 28.6269 76.0591C31.8924 77.0888 36.2455 76.0852 39.2111 73.6259C42.3553 71.0134 44 67 43 63C41 53 40 51 40 46.0017C40 34 51 24 64.0116 24C77.0232 24 88 34 88 46.0017C88 51 87 53 85 63C84 67 85.6426 71.011 88.7877 73.6235C91.7515 76.086 96.1039 77.088 99.3711 76.0567C99.9479 75.871 100.566 75.8307 101.165 75.9397Z" fill="white"/>
</svg>
